<svg viewBox="0 0 146 45" xmlns="http://www.w3.org/2000/svg"><path d="m33.12 9.29a2.4 2.4 0 0 1 2.4 2.39v5.94h5v-5.94a7.39 7.39 0 0 0 -7.4-7.38h-6v5zm2.39 27.63a2.4 2.4 0 0 1 -2.39 2.4h-6v5h6a7.38 7.38 0 0 0 7.38-7.38v-6h-5v6zm-30-25.24a2.39 2.39 0 0 1 2.37-2.39h6v-5h-6a7.38 7.38 0 0 0 -7.38 7.39v5.94h5zm2.37 27.64a2.41 2.41 0 0 1 -2.4-2.4v-6h-4.98v6a7.39 7.39 0 0 0 7.38 7.38h6v-5zm9.73-3.13-10.61-10.66 3.48-3.53 7.13 7.13 12.89-12.89 3.5 3.53z"/><path d="m70.37 33.09a5.94 5.94 0 0 1 1.44 4 6.6 6.6 0 0 1 -1 3.56 7.24 7.24 0 0 1 -3.15 2.64 12 12 0 0 1 -5.23 1 18.65 18.65 0 0 1 -4.52-.56 13.58 13.58 0 0 1 -3.91-1.56l2.22-4.61a10.08 10.08 0 0 0 2.86 1.33 11 11 0 0 0 3.13.46 4.55 4.55 0 0 0 2.5-.58 1.88 1.88 0 0 0 .92-1.67q0-2.1-3.3-2.1h-2.56v-3.87l3.86-4.13h-8.52v-4.78h15.62v3.84l-4.48 4.82a7.24 7.24 0 0 1 4.12 2.21m25.27-10.87v21.65h-6.11v-8.44h-8.34v8.44h-6.11v-21.65h6.11v8.13h8.34v-8.13zm19.68.79a8.55 8.55 0 0 1 3.61 3.56 11.61 11.61 0 0 1 1.28 5.61v11.69h-6.11v-4.79h-8.43v4.79h-6v-11.69a11.51 11.51 0 0 1 1.29-5.61 8.44 8.44 0 0 1 3.59-3.57 12.47 12.47 0 0 1 10.77 0m-1.22 11.35v-2.7a5 5 0 0 0 -1.1-3.58 4.49 4.49 0 0 0 -6.14 0 5.05 5.05 0 0 0 -1.15 3.58v2.69zm16.13-.76v10.28h-6.08v-21.65h6.08v10.26h.16l7.61-10.26h7.28l-8.32 10.45 8.56 11.2h-7.93zm-65.34-29.31v11.15h-3.69v-3.57a7.25 7.25 0 0 1 -2 .34 5.34 5.34 0 0 1 -3.74-1.2 4.34 4.34 0 0 1 -1.28-3.39v-3.33h3.69v3a2.13 2.13 0 0 0 .44 1.5 1.73 1.73 0 0 0 1.35.48 4 4 0 0 0 1.54-.26v-4.72zm11.85 8.31v2.84h-9.25v-11.15h9v2.84h-5.31v1.3h4.7v2.7h-4.7v1.47zm4.48 2.35a5.53 5.53 0 0 1 -2.22-2.07 5.78 5.78 0 0 1 -.8-3 5.81 5.81 0 0 1 .8-3 5.6 5.6 0 0 1 2.22-2.07 6.64 6.64 0 0 1 3.18-.8 7 7 0 0 1 2.89.57 5.41 5.41 0 0 1 2.1 1.66l-2.39 2.14a3.05 3.05 0 0 0 -2.43-1.3 2.48 2.48 0 0 0 -1.89.76 2.79 2.79 0 0 0 -.71 2 2.82 2.82 0 0 0 .71 2 2.47 2.47 0 0 0 1.89.75 3 3 0 0 0 2.43-1.24l2.37 2.12a5.41 5.41 0 0 1 -2.1 1.66 7 7 0 0 1 -2.89.57 6.73 6.73 0 0 1 -3.16-.69m19.66-7.8h-3.26v8.23h-3.68v-8.23h-3.26v-2.92h10.2zm12.67-2.91v11.14h-3.75v-4.11h-3.46v4.11h-3.75v-11.15h3.75v4h3.46v-4h3.75zm11.81 4.35a3.35 3.35 0 0 1 1.13 2.75 3.63 3.63 0 0 1 -1.28 3 5.5 5.5 0 0 1 -3.53 1h-5.51v-11.11h3.68v3.42h2.3a5 5 0 0 1 3.21.93m-3 3.81a1.32 1.32 0 0 0 .36-1 1.07 1.07 0 0 0 -1-1.14 1.46 1.46 0 0 0 -.29 0h-1.57v2.5h1.57a1.3 1.3 0 0 0 .94-.36m5.15-8.16h3.69v11.15h-3.69zm6.29 0h3.68v5.8l3.83-5.8h3.53v11.15h-3.69v-5.78l-3.81 5.78h-3.55v-11.15zm2.85-1.28a2.52 2.52 0 0 1 -.81-2h2.49a1.22 1.22 0 0 0 .22.78 1 1 0 0 0 .75.24 1.06 1.06 0 0 0 .77-.24 1.05 1.05 0 0 0 .23-.78h2.5a2.52 2.52 0 0 1 -.81 2 4.21 4.21 0 0 1 -2.67.69 4.07 4.07 0 0 1 -2.66-.69"/></svg>